<?xml version="1.0" encoding="utf-8"?>
<!-- Generator: Adobe Illustrator 16.0.0, SVG Export Plug-In . SVG Version: 6.00 Build 0)  -->
<!DOCTYPE svg PUBLIC "-//W3C//DTD SVG 1.1//EN" "http://www.w3.org/Graphics/SVG/1.1/DTD/svg11.dtd">
<svg version="1.1" id="Layer_1" xmlns="http://www.w3.org/2000/svg" xmlns:xlink="http://www.w3.org/1999/xlink" x="0px" y="0px"
	 width="130px" height="40px" viewBox="0 0 130 40" enable-background="new 0 0 130 40" xml:space="preserve">
<g id="Page-1_5_">
	<g id="_x31_440_x5F_Homepage_x5F_without_x5F_guides_1_" transform="translate(-496.000000, -3427.000000)">
		<g id="Group-7-Copy_1_" transform="translate(0.000000, 2068.000000)">
			<g id="IMG_AppStore" transform="translate(496.000000, 1359.000000)">
				<path id="background_1_" d="M4,0h122c2.209,0,4,1.791,4,4v32c0,2.209-1.791,4-4,4H4c-2.209,0-4-1.791-4-4V4C0,1.791,1.791,0,4,0
					z"/>
				<g id="icon_1_" transform="translate(8.000000, 6.000000)">
					<path id="Fill-1_18_" fill="#FFFFFF" d="M14.168,4.178c0.867-1.099,1.498-2.61,1.334-4.136
						c-1.293,0.049-2.834,0.868-3.752,1.975c-0.826,0.952-1.545,2.524-1.338,4.004C11.818,6.115,13.264,5.285,14.168,4.178"/>
					<path id="Fill-3_4_" fill="#FFFFFF" d="M17.916,16.193l-0.021-0.041c-0.402-0.823-0.586-2.113-0.432-3.157v-0.039l0,0
						c0.162-1.369,1.029-2.771,1.721-3.277c0.01-0.006,0.02-0.013,0.027-0.021V9.652h0.002c0.154-0.172,0.592-0.526,0.889-0.743
						c-1.094-1.638-2.883-2.519-4.705-2.548c-1.838-0.153-3.744,1.186-4.771,1.152C9.63,7.544,8.128,6.335,6.542,6.412L6.526,6.41
						c-0.035,0-0.322,0.017-0.322,0.017C4.102,6.479,2.239,7.737,1.183,9.647v0.006H1.174V9.647c-0.418,0.688-0.92,2.291-0.996,3.31
						v0.054c-0.1,0.646-0.002,2.36,0.111,3.187c0.004,0.017,0.006,0.028,0.008,0.04h0.002c0.088,0.822,0.5,2.412,0.809,3.188v0.007
						H1.105c0.295,0.858,1.121,2.471,1.654,3.295v0.006h0.006c1.078,1.571,2.346,3.342,4.018,3.266
						c1.615-0.063,2.211-1.092,4.156-1.074c1.945-0.018,2.482,1.025,4.188,1.032c1.738-0.075,2.814-1.647,3.893-3.224
						c0.527-0.813,1.355-2.373,1.648-3.301h0.004c0.031-0.098,0.082-0.248,0.115-0.355C19.644,18.743,18.363,17.213,17.916,16.193"
						/>
				</g>
				<g id="download-on-the-app-store" transform="translate(39.000000, 6.000000)">
					<path id="Download-on-the" fill="#FFFFFF" d="M0.76,7.98v-6.63C1.291,1.271,1.92,1.21,2.612,1.21c1.25,0,2.139,0.29,2.729,0.84
						c0.602,0.551,0.951,1.33,0.951,2.42c0,1.104-0.34,2-0.971,2.62c-0.629,0.63-1.67,0.972-2.98,0.972
						C1.721,8.062,1.201,8.031,0.76,7.98z M1.631,1.99v5.318C1.852,7.349,2.17,7.357,2.51,7.357c1.861,0,2.871-1.039,2.871-2.856
						c0.01-1.59-0.891-2.603-2.73-2.603C2.201,1.898,1.861,1.938,1.631,1.99z M9.48,3.05c1.391,0,2.33,1.012,2.33,2.49
						c0,1.79-1.24,2.566-2.41,2.566c-1.311,0-2.32-0.959-2.32-2.486C7.08,4,8.141,3.05,9.48,3.05z M9.461,3.71
						c-1.041,0-1.49,0.96-1.49,1.88c0,1.062,0.609,1.86,1.471,1.86c0.84,0,1.469-0.79,1.469-1.883C10.91,4.75,10.5,3.71,9.461,3.71z
						 M12.301,3.16L13.76,8h0.801l0.779-2.3c0.17-0.521,0.32-1.021,0.441-1.604h0.02c0.119,0.57,0.26,1.051,0.43,1.59L16.971,8
						h0.801l1.559-4.84h-0.869l-0.689,2.43c-0.16,0.57-0.291,1.08-0.371,1.57h-0.029c-0.111-0.49-0.25-1-0.43-1.58l-0.75-2.42h-0.74
						l-0.791,2.47c-0.16,0.521-0.32,1.04-0.43,1.53h-0.029c-0.09-0.5-0.221-1-0.361-1.54l-0.639-2.46H12.301z M20.211,8h0.879V5.09
						c0-0.149,0.021-0.3,0.061-0.409c0.15-0.49,0.6-0.898,1.18-0.898c0.83,0,1.121,0.648,1.121,1.431v2.79h0.879V5.109
						c0-1.657-1.039-2.061-1.709-2.061c-0.801,0-1.361,0.45-1.6,0.91h-0.021l-0.049-0.8h-0.781c0.031,0.397,0.041,0.81,0.041,1.31
						L20.211,8L20.211,8z M25.76,8h0.882V0.898H25.76V8z M30.17,3.05c1.392,0,2.33,1.012,2.33,2.49c0,1.79-1.24,2.566-2.41,2.566
						c-1.312,0-2.319-0.959-2.319-2.486C27.769,4,28.83,3.05,30.17,3.05z M30.149,3.71c-1.041,0-1.489,0.96-1.489,1.88
						c0,1.062,0.608,1.86,1.471,1.86c0.841,0,1.47-0.79,1.47-1.883C31.599,4.75,31.188,3.71,30.149,3.71z M37.09,8h-0.799
						l-0.069-0.608H36.19C35.92,7.771,35.401,8.11,34.711,8.11c-0.979,0-1.479-0.688-1.479-1.391c0-1.17,1.039-1.81,2.91-1.8V4.818
						c0-0.397-0.111-1.117-1.101-1.117c-0.451,0-0.92,0.14-1.263,0.357l-0.198-0.58c0.399-0.261,0.979-0.431,1.59-0.431
						c1.479,0,1.84,1.011,1.84,1.979v1.813C37.01,7.26,37.028,7.67,37.09,8z M36.16,6.37V5.53c-0.959-0.021-2.052,0.146-2.052,1.09
						c0,0.566,0.382,0.84,0.83,0.84c0.631,0,1.031-0.398,1.17-0.813C36.142,6.562,36.16,6.46,36.16,6.37z M41.729,0.898h0.879V6.75
						c0,0.431,0.013,0.92,0.041,1.25h-0.791l-0.039-0.84H41.8c-0.271,0.54-0.861,0.946-1.65,0.946c-1.17,0-2.069-0.986-2.069-2.459
						c-0.011-1.607,0.989-2.601,2.17-2.601c0.74,0,1.24,0.351,1.461,0.74h0.021L41.729,0.898L41.729,0.898z M41.729,5.97V5.13
						c0-0.109-0.01-0.26-0.041-0.37c-0.129-0.56-0.608-1.02-1.27-1.02c-0.91,0-1.449,0.801-1.449,1.867
						c0,0.98,0.48,1.791,1.43,1.791c0.591,0,1.129-0.391,1.289-1.051C41.722,6.23,41.729,6.107,41.729,5.97z M48.24,3.05
						c1.391,0,2.329,1.012,2.329,2.49c0,1.79-1.239,2.566-2.409,2.566c-1.312,0-2.32-0.959-2.32-2.486
						C45.84,4,46.899,3.05,48.24,3.05z M48.222,3.71c-1.041,0-1.49,0.96-1.49,1.88c0,1.062,0.608,1.86,1.471,1.86
						c0.84,0,1.469-0.79,1.469-1.883C49.67,4.75,49.26,3.71,48.222,3.71z M51.681,8h0.881V5.09c0-0.149,0.02-0.3,0.061-0.409
						c0.148-0.49,0.6-0.898,1.18-0.898c0.83,0,1.119,0.648,1.119,1.431v2.79h0.881V5.109c0-1.657-1.041-2.061-1.711-2.061
						c-0.799,0-1.359,0.45-1.6,0.91h-0.02l-0.052-0.8h-0.778c0.028,0.4,0.039,0.811,0.039,1.311V8z M59.551,2v1.16h-0.75v0.67h0.75
						v2.64c0,0.57,0.091,1,0.341,1.262c0.209,0.238,0.539,0.369,0.948,0.369c0.341,0,0.611-0.051,0.781-0.119L61.58,7.323
						c-0.108,0.027-0.279,0.06-0.511,0.06c-0.489,0-0.659-0.34-0.659-0.94v-2.61h1.26v-0.67h-1.26V1.771L59.551,2z M62.66,8h0.881
						V5.08c0-0.17,0.01-0.3,0.06-0.42c0.159-0.479,0.61-0.88,1.18-0.88c0.83,0,1.121,0.656,1.121,1.438v2.78h0.879v-2.88
						c0-1.671-1.039-2.07-1.689-2.07c-0.33,0-0.639,0.101-0.9,0.25c-0.27,0.149-0.487,0.37-0.629,0.62h-0.02V0.897h-0.881L62.66,8
						L62.66,8z M72.099,5.74h-3.397c0.021,1.188,0.778,1.681,1.657,1.681c0.632,0,1.013-0.108,1.343-0.25l0.147,0.63
						c-0.309,0.141-0.84,0.301-1.608,0.301c-1.49,0-2.382-0.979-2.382-2.438s0.861-2.61,2.271-2.61c1.58,0,2,1.39,2,2.28
						C72.131,5.51,72.108,5.648,72.099,5.74z M68.711,5.107h2.567c0.013-0.56-0.229-1.43-1.219-1.43
						C69.17,3.681,68.778,4.5,68.711,5.107z M7.56,21.563H3.708l-1.045,3.438H0.379l3.889-12.132h2.824l3.943,12.132H8.658
						L7.56,21.563z M4.068,19.89h3.115l-0.955-2.988c-0.234-0.736-0.432-1.564-0.611-2.27H5.58c-0.18,0.702-0.359,1.549-0.576,2.27
						L4.068,19.89z M12.547,28.563v-9.414c0-1.149-0.037-2.088-0.072-2.916h1.943l0.109,1.353h0.035
						c0.648-0.99,1.674-1.548,3.006-1.548c2.016,0,3.689,1.729,3.689,4.464c0,3.168-1.998,4.698-3.994,4.698
						c-1.1,0-2.018-0.471-2.467-1.174h-0.037v4.537H12.547z M14.76,19.979v1.352c0,0.216,0.02,0.414,0.072,0.609
						c0.217,0.899,1.008,1.551,1.945,1.551c1.404,0,2.23-1.172,2.23-2.898c0-1.548-0.756-2.808-2.178-2.808
						c-0.918,0-1.764,0.665-1.979,1.638C14.797,19.601,14.76,19.798,14.76,19.979z M23.076,28.563v-9.414
						c0-1.149-0.035-2.088-0.072-2.916h1.945l0.107,1.353h0.035c0.648-0.99,1.674-1.548,3.006-1.548
						c2.016,0,3.691,1.729,3.691,4.464c0,3.168-1.998,4.698-3.996,4.698c-1.1,0-2.018-0.471-2.467-1.174H25.29v4.537H23.076z
						 M25.291,19.979v1.352c0,0.216,0.018,0.414,0.07,0.609c0.217,0.899,1.01,1.551,1.945,1.551c1.404,0,2.232-1.172,2.232-2.898
						c0-1.548-0.756-2.808-2.18-2.808c-0.918,0-1.764,0.665-1.979,1.638C25.326,19.601,25.291,19.798,25.291,19.979z M36.883,24.424
						c0.666,0.396,1.998,0.757,3.275,0.757c3.133,0,4.606-1.689,4.606-3.637c0-1.746-1.024-2.811-3.131-3.604
						c-1.621-0.629-2.322-1.062-2.322-1.998c0-0.698,0.611-1.457,2.017-1.457c1.135,0,1.979,0.345,2.412,0.576l0.538-1.779
						c-0.629-0.324-1.602-0.612-2.913-0.612c-2.63,0-4.285,1.513-4.285,3.492c0,1.746,1.276,2.81,3.274,3.524
						c1.549,0.562,2.16,1.102,2.16,2.02c0,0.986-0.791,1.652-2.213,1.652c-1.135,0-2.215-0.356-2.934-0.771L36.883,24.424z
						 M46.979,14.254v1.979h-1.26v1.656h1.26v4.121c0,1.152,0.215,1.944,0.685,2.448c0.414,0.45,1.099,0.72,1.907,0.72
						c0.701,0,1.277-0.09,1.603-0.216L51.14,23.27c-0.199,0.058-0.486,0.108-0.865,0.108c-0.846,0-1.133-0.56-1.133-1.62V17.89
						h2.104v-1.656h-2.104v-2.502L46.979,14.254z M56.791,16.036c2.608,0,4.354,1.836,4.354,4.5c0,3.222-2.268,4.662-4.5,4.662
						c-2.483,0-4.393-1.713-4.393-4.521C52.254,17.8,54.144,16.036,56.791,16.036z M56.735,17.656c-1.565,0-2.194,1.513-2.194,2.971
						c0,1.689,0.828,2.971,2.179,2.971c1.26,0,2.141-1.242,2.141-3.007C58.858,19.224,58.248,17.656,56.735,17.656z M62.965,25
						h2.214v-4.536c0-0.252,0.036-0.484,0.071-0.684c0.199-0.99,0.918-1.678,1.979-1.678c0.271,0,0.47,0.037,0.648,0.072v-2.088
						c-0.18-0.035-0.307-0.054-0.523-0.054c-0.936,0-1.961,0.63-2.393,1.872H64.89l-0.072-1.676h-1.926
						c0.053,0.791,0.072,1.64,0.072,2.826L62.965,25L62.965,25z M76.644,21.236h-5.869c0.056,1.584,1.297,2.271,2.701,2.271
						c1.025,0,1.765-0.146,2.43-0.396l0.324,1.531c-0.756,0.306-1.801,0.539-3.061,0.539c-2.844,0-4.518-1.746-4.518-4.429
						c0-2.433,1.477-4.716,4.283-4.716c2.844,0,3.78,2.34,3.78,4.266C76.717,20.716,76.681,21.04,76.644,21.236z M70.774,19.688
						h3.854c0.019-0.81-0.342-2.142-1.817-2.142C71.44,17.548,70.867,18.79,70.774,19.688z"/>
				</g>
			</g>
		</g>
	</g>
</g>
</svg>
