<?xml version="1.0" encoding="utf-8"?>
<!-- Generator: Adobe Illustrator 16.2.0, SVG Export Plug-In . SVG Version: 6.00 Build 0)  -->
<!DOCTYPE svg PUBLIC "-//W3C//DTD SVG 1.1//EN" "http://www.w3.org/Graphics/SVG/1.1/DTD/svg11.dtd">
<svg version="1.1" id="Layer_1" xmlns="http://www.w3.org/2000/svg" xmlns:xlink="http://www.w3.org/1999/xlink" x="0px" y="0px"
	 width="40.917px" height="40.834px" viewBox="0 0 40.917 40.834" enable-background="new 0 0 40.917 40.834" xml:space="preserve">
<g>
	<path fill="#010101" d="M40.488,20.356c0,1.17-0.119,2.34-0.354,3.51C38.263,34.742,27.85,41.991,16.981,40.124
		C6.107,38.252-1.146,27.842,0.723,16.969C2.59,6.094,13.008-1.157,23.878,0.71C33.707,2.464,40.488,10.884,40.488,20.356
		L40.488,20.356z"/>
	<path fill="#FBDB40" d="M23.763,1.997C13.353,0.125,3.293,7.376,1.894,18.136c-1.172,9.473,5.148,18.596,14.503,20.582
		c10.523,2.34,20.702-4.562,22.574-14.968C40.722,13.458,33.938,3.75,23.763,1.997L23.763,1.997z"/>
	<path fill="#FFFFFF" d="M29.843,26.907l-1.283,7.255L8.794,30.771l4.332-24.094l18.711,3.158L29.843,26.907z"/>
	<path fill="#FFFFFF" d="M11.132,24.919l18.246,3.155l-0.934,5.497l-18.244-3.157L11.132,24.919z"/>
	<path fill="#010101" d="M22.362,28.192c-0.356-0.118-0.694,0-0.937,0c-0.23,0.119-0.465,0.236-0.465,0.586
		c0,0.234,0,0.467,0.233,0.701c0.231,0.233,0.466,0.353,0.935,0.353c0.358,0.118,0.695,0,0.935,0
		c0.231-0.118,0.467-0.353,0.467-0.587c0-0.232,0-0.467-0.233-0.7C23.063,28.429,22.708,28.31,22.362,28.192L22.362,28.192z
		 M12.65,27.608l1.172,0.232l-0.46-1.053L12.65,27.608L12.65,27.608z M28.328,30.883l-2.341-0.353l0.354-1.871l-0.937-0.116
		l-0.467,2.337l3.28,0.586L28.328,30.883L28.328,30.883z M23.88,28.31c-0.352-0.24-0.816-0.468-1.516-0.586
		c-0.693-0.117-1.175-0.117-1.641,0c-0.466,0.118-0.819,0.352-0.935,0.819c-0.119,0.456,0.119,0.817,0.594,1.054
		c0.359,0.232,0.82,0.454,1.509,0.584c0.701,0.118,1.173,0.118,1.648,0c0.457-0.119,0.816-0.467,0.935-0.818
		C24.466,29.013,24.349,28.661,23.88,28.31z M19.787,27.375l-3.858-0.702L15.81,27.14l1.405,0.235l-0.352,1.87l0.934,0.119
		l0.359-1.867l1.412,0.232L19.787,27.375L19.787,27.375z M15.344,29.013l-1.288-2.572l-1.172-0.232l-2.103,1.986l1.053,0.234
		l0.352-0.47l1.753,0.354l0.233,0.597L15.344,29.013L15.344,29.013z M28.56,34.156l-19.766-3.39l4.332-24.094l3.855,0.702
		c-2.926,5.145-2.926,10.876,1.753,15.671c4.673,4.795,11.109,3.977,11.109,3.977L28.56,34.156L28.56,34.156z M21.658,20.356
		c-3.856-7.487,4.094-11.465,4.094-11.465l7.127,1.287l-2.926,15.787C30.076,25.854,24.466,25.735,21.658,20.356L21.658,20.356z"/>
</g>
</svg>
