<?xml version="1.0" encoding="utf-8"?>
<!-- Generator: Adobe Illustrator 16.2.0, SVG Export Plug-In . SVG Version: 6.00 Build 0)  -->
<!DOCTYPE svg PUBLIC "-//W3C//DTD SVG 1.1//EN" "http://www.w3.org/Graphics/SVG/1.1/DTD/svg11.dtd">
<svg version="1.1" id="Layer_1" xmlns="http://www.w3.org/2000/svg" xmlns:xlink="http://www.w3.org/1999/xlink" x="0px" y="0px"
	 width="45px" height="44px" viewBox="0 0 45 44" enable-background="new 0 0 45 44" xml:space="preserve">
<g>
	<g>
		<defs>
			<filter id="Adobe_OpacityMaskFilter" filterUnits="userSpaceOnUse" x="0.173" y="0" width="44.654" height="44">
				<feColorMatrix  type="matrix" values="1 0 0 0 0  0 1 0 0 0  0 0 1 0 0  0 0 0 1 0"/>
			</filter>
		</defs>
		<mask maskUnits="userSpaceOnUse" x="0.173" y="0" width="44.654" height="44" id="b">
			<g filter="url(#Adobe_OpacityMaskFilter)">
				<path id="a" fill="#FFFFFF" d="M0.173,0h44.654v44H0.173V0z"/>
			</g>
		</mask>
		<path mask="url(#b)" fill="#6E3D7C" d="M31.407,42.548c-3.096,0.009-6.074-1.177-8.319-3.308c-0.216-0.205-0.418-0.42-0.617-0.641
			l-0.058-0.063c-0.208-0.235-0.406-0.478-0.594-0.728c-0.981-1.295-1.678-2.781-2.044-4.363c-0.192-0.83-0.291-1.68-0.292-2.532
			c0-6.424,5.338-11.633,11.926-11.633c2.854,0,5.473,0.979,7.521,2.612c0.257,0.2,0.496,0.414,0.729,0.635l0.053,0.046
			c0.244,0.235,0.479,0.479,0.705,0.733c1.813,2.041,2.915,4.691,2.915,7.604C43.333,37.339,37.993,42.548,31.407,42.548z
			 M2.408,37.809c-0.449,0-0.746-0.338-0.746-0.759V14.543c0.449,0,0.746-0.323,0.746-0.728V12.36c0-0.401-0.297-0.727-0.746-0.727
			V6.552c0-0.423,0.297-0.758,0.746-0.758h3.727v2.203c0,1.2,1.004,2.182,2.236,2.182c1.23,0,2.236-0.98,2.236-2.182V5.794h7.453
			v2.205c0,1.2,1.006,2.18,2.236,2.18c1.231,0,2.235-0.978,2.235-2.18V5.794h7.453v2.205c0,1.2,1.006,2.18,2.235,2.18
			c1.231,0,2.236-0.978,2.236-2.18V5.794h3.727c0.449,0,0.746,0.336,0.746,0.759v5.08c-0.448,0-0.746,0.325-0.746,0.728v1.455
			c0,0.403,0.298,0.729,0.746,0.729v5.533c-2.231-1.474-4.848-2.256-7.522-2.25c-7.407,0-13.417,5.857-13.417,13.088
			c0,0.865,0.091,1.71,0.256,2.529H3.898c-0.407-0.004-0.74,0.322-0.745,0.729c0,0.402,0.335,0.729,0.745,0.729h14.729
			c0.339,1.023,0.806,2.002,1.389,2.908H2.407L2.408,37.809L2.408,37.809L2.408,37.809z M7.625,2.183
			c0.007-0.406,0.339-0.73,0.745-0.727c0.411,0,0.745,0.326,0.745,0.727v5.816c0,0.4-0.334,0.728-0.745,0.728
			C7.964,8.731,7.631,8.405,7.625,7.999V2.183L7.625,2.183z M19.552,2.183c0-0.398,0.334-0.727,0.744-0.727
			c0.411,0,0.745,0.326,0.745,0.727v5.816c0,0.4-0.334,0.728-0.745,0.728c-0.406,0.004-0.739-0.322-0.744-0.728V2.183L19.552,2.183z
			 M31.476,2.183c0.008-0.406,0.34-0.73,0.746-0.727c0.41,0,0.746,0.326,0.746,0.727v5.816c-0.006,0.406-0.34,0.731-0.746,0.728
			c-0.406,0.004-0.74-0.321-0.746-0.728V2.183L31.476,2.183z M40.421,21.243V6.552c0-1.177-0.969-2.188-2.236-2.188h-3.727V2.182
			c0-1.2-1.004-2.182-2.236-2.182c-1.23,0-2.234,0.98-2.234,2.182v2.182h-7.454V2.182c0-1.2-1.004-2.182-2.235-2.182
			c-1.23,0-2.236,0.98-2.236,2.182v2.182H10.61V2.182C10.61,0.982,9.604,0,8.374,0C7.142,0,6.138,0.98,6.138,2.182v2.182H2.409
			c-1.268,0-2.236,1.012-2.236,2.189V37.05c0,1.179,0.971,2.19,2.236,2.19h18.646C23.516,42.146,27.241,44,31.409,44
			c7.408,0,13.418-5.857,13.418-13.086C44.825,27.076,43.12,23.634,40.421,21.243L40.421,21.243z"/>
	</g>
	<path fill="#6E3D7C" d="M35.22,36.475c-0.422,0.193-0.879,0.291-1.367,0.291c-0.428,0-0.99-0.16-1.688-0.479
		c-0.698-0.319-1.313-0.479-1.842-0.479c-0.424,0.012-0.844,0.084-1.246,0.217c1.213-0.842,1.816-1.867,1.816-3.078
		c0-0.313-0.057-0.646-0.162-1h2.908v-1.25h-3.586c-0.197-0.26-0.402-0.514-0.615-0.762c-0.238-0.275-0.461-0.563-0.67-0.857
		c-0.131-0.192-0.264-0.479-0.402-0.862c-0.139-0.377-0.209-0.774-0.209-1.177c0-0.9,0.328-1.623,0.982-2.164
		c0.656-0.541,1.453-0.813,2.395-0.813c0.674-0.012,1.334,0.184,1.896,0.557c0.556,0.371,0.938,0.822,1.146,1.354l1.598-0.934
		c-0.443-0.816-1.118-1.484-1.939-1.92c-0.842-0.453-1.803-0.682-2.883-0.682c-1.459,0-2.715,0.445-3.768,1.334
		c-1.053,0.893-1.578,1.973-1.578,3.244c0,0.528,0.111,1.047,0.338,1.551s0.422,0.857,0.588,1.065
		c0.168,0.208,0.473,0.563,0.914,1.063h-2.504v1.25h3.438c0.24,0.47,0.359,0.937,0.359,1.396c0,0.697-0.271,1.354-0.814,1.968
		c-0.543,0.611-1.32,1.137-2.34,1.565l0.697,1.466c1.203-0.619,2.141-0.933,2.809-0.933c0.572,0,1.244,0.181,2.011,0.538
		c0.766,0.359,1.521,0.541,2.266,0.541c1.367-0.01,2.438-0.375,3.218-1.104l-0.854-1.558C35.946,36.068,35.644,36.282,35.22,36.475
		 M16.57,14.543c0.447,0,0.745-0.324,0.745-0.728V12.36c0-0.402-0.298-0.728-0.745-0.728c-0.448,0-0.746,0.323-0.746,0.728v1.454
		C15.824,14.214,16.121,14.542,16.57,14.543 M12.843,14.543c0.448,0,0.746-0.324,0.746-0.728V12.36c0-0.402-0.298-0.728-0.746-0.728
		c-0.449,0-0.746,0.323-0.746,0.728v1.454C12.097,14.214,12.394,14.542,12.843,14.543 M20.296,14.543
		c0.448,0,0.745-0.324,0.745-0.728V12.36c0-0.402-0.297-0.728-0.745-0.728c-0.447,0-0.744,0.323-0.744,0.728v1.454
		C19.552,14.214,19.847,14.542,20.296,14.543 M5.388,14.543c0.449,0,0.746-0.324,0.746-0.728V12.36c0-0.402-0.297-0.728-0.746-0.728
		c-0.447,0-0.746,0.323-0.746,0.728v1.454C4.642,14.214,4.941,14.542,5.388,14.543 M9.116,14.543c0.448,0,0.745-0.324,0.745-0.728
		V12.36c0-0.402-0.297-0.728-0.745-0.728c-0.446,0-0.745,0.323-0.745,0.728v1.454C8.37,14.214,8.669,14.542,9.116,14.543
		 M31.476,14.543c0.449,0,0.746-0.324,0.746-0.728V12.36c0-0.402-0.297-0.728-0.746-0.728c-0.447,0-0.744,0.323-0.744,0.728v1.454
		C30.731,14.214,31.028,14.542,31.476,14.543 M35.202,14.543c0.449,0,0.746-0.324,0.746-0.728V12.36
		c0-0.402-0.297-0.728-0.746-0.728c-0.447,0-0.744,0.323-0.744,0.728v1.454C34.458,14.214,34.755,14.542,35.202,14.543
		 M24.022,14.543c0.45,0,0.746-0.324,0.746-0.728V12.36c0-0.402-0.297-0.728-0.746-0.728c-0.447,0-0.744,0.323-0.744,0.728v1.454
		C23.278,14.214,23.573,14.542,24.022,14.543 M27.75,14.543c0.448,0,0.745-0.324,0.745-0.728V12.36c0-0.402-0.297-0.728-0.745-0.728
		s-0.745,0.323-0.745,0.728v1.454C27.005,14.214,27.302,14.542,27.75,14.543"/>
	<path opacity="0.2" fill="#9E64B2" enable-background="new    " d="M21.819,37.809c-0.981-1.295-1.678-2.781-2.044-4.363
		c-0.192-0.828-0.291-1.68-0.292-2.53c0-6.424,5.34-11.633,11.926-11.633c2.854,0,5.473,0.979,7.521,2.612
		c0.197,0.155,0.384,0.324,0.565,0.493V13.09H1.663v24.725h20.16L21.819,37.809 M7.625,2.182c0.007-0.406,0.339-0.73,0.745-0.727
		c0.41,0,0.745,0.326,0.745,0.727v5.816c0,0.4-0.334,0.728-0.745,0.728C7.964,8.73,7.631,8.404,7.625,7.998V2.182z M19.551,2.182
		c0.007-0.406,0.339-0.73,0.745-0.727c0.412,0,0.745,0.326,0.745,0.727v5.816c0,0.4-0.333,0.728-0.744,0.728
		c-0.406,0.004-0.74-0.322-0.745-0.728L19.551,2.182L19.551,2.182z M31.478,2.182c0.006-0.406,0.34-0.73,0.744-0.727
		c0.41,0,0.745,0.326,0.745,0.727v5.816c0,0.4-0.334,0.728-0.745,0.728c-0.406,0.004-0.738-0.322-0.744-0.728V2.182L31.478,2.182z"
		/>
</g>
</svg>
