<?xml version="1.0" encoding="utf-8"?>
<!-- Generator: Adobe Illustrator 16.2.0, SVG Export Plug-In . SVG Version: 6.00 Build 0)  -->
<!DOCTYPE svg PUBLIC "-//W3C//DTD SVG 1.1//EN" "http://www.w3.org/Graphics/SVG/1.1/DTD/svg11.dtd">
<svg version="1.1" id="Layer_1" xmlns="http://www.w3.org/2000/svg" xmlns:xlink="http://www.w3.org/1999/xlink" x="0px" y="0px"
	 width="44px" height="44px" viewBox="0 0 44 44" enable-background="new 0 0 44 44" xml:space="preserve">
<g>
	<path opacity="0.1" fill="#9E64B2" enable-background="new    " d="M21.673,21.557V1.878c-11.344,0-20.54,9.178-20.54,20.5
		c0,11.323,9.196,20.5,20.54,20.5c6.736,0,12.714-3.236,16.46-8.234L21.673,21.557z"/>
	<path fill="#6E3D7C" d="M29.138,23.594h-4.484c1.345-2.396,2.842-4.699,4.484-6.899V23.594z M33.014,23.551h-1.812v-8.927
		c-0.887,0-1.688,0.014-2.484-0.007c-0.352-0.01-0.572,0.117-0.755,0.41c-1.683,2.685-3.377,5.362-5.063,8.044
		c-0.479,0.76-0.231,1.572-0.225,2.434h6.49v2.537h2.06v-2.553h1.79L33.014,23.551L33.014,23.551z M20.368,26.813
		c-0.004-0.688-0.005-0.691-0.677-0.692c-1.606-0.005-3.212,0-4.817-0.005c-0.19,0-0.38-0.023-0.66-0.043
		c0.221-0.234,0.357-0.387,0.499-0.529c1.01-1.027,2.06-2.021,3.021-3.09c0.71-0.791,1.408-1.626,1.933-2.543
		c0.917-1.6,0.415-3.634-1.022-4.695c-1.592-1.177-4.215-1.217-5.81-0.056c-1.136,0.828-1.682,1.957-1.637,3.373h1.946
		c0.028-0.123,0.052-0.2,0.064-0.28c0.16-1.126,0.68-1.746,1.732-1.972c1.032-0.222,1.977-0.06,2.67,0.828
		c0.568,0.73,0.555,1.723-0.075,2.65c-0.38,0.558-0.818,1.086-1.282,1.578c-1.427,1.512-2.84,3.041-4.337,4.481
		c-0.686,0.66-0.721,1.359-0.583,2.211h9.035C20.368,27.588,20.37,27.199,20.368,26.813 M3.002,21.994
		c-0.017,0.517,0.455,1.01,0.962,1.007c0.488-0.002,0.958-0.442,0.99-0.927c0.034-0.51-0.425-1.023-0.93-1.038
		C3.516,21.021,3.018,21.486,3.002,21.994 M6.378,32.025c0.516-0.015,0.935-0.424,0.96-0.939c0.02-0.553-0.397-1.018-0.924-1.025
		c-0.541-0.006-0.984,0.428-0.99,0.967C5.417,31.578,5.855,32.037,6.378,32.025"/>
	<g transform="translate(0 .244)">
		<defs>
			<filter id="Adobe_OpacityMaskFilter" filterUnits="userSpaceOnUse" x="0.133" y="-0.119" width="43.734" height="43.75">
				<feColorMatrix  type="matrix" values="1 0 0 0 0  0 1 0 0 0  0 0 1 0 0  0 0 0 1 0"/>
			</filter>
		</defs>
		<mask maskUnits="userSpaceOnUse" x="0.133" y="-0.119" width="43.734" height="43.75" id="b">
			<g filter="url(#Adobe_OpacityMaskFilter)">
				<path id="a" fill="#FFFFFF" d="M0.133-0.119h43.735v43.75H0.133V-0.119z"/>
			</g>
		</mask>
		<path mask="url(#b)" fill="#6E3D7C" d="M41.372,11.756l-1.651,0.848c2.96,6.256,3.035,12.482-0.188,18.6
			c-2.338,4.439-5.967,7.505-10.67,9.263c-9.25,3.458-19.936-0.649-24.456-9.388C-0.3,21.985,2.433,11.023,10.838,5.309
			c8.115-5.514,18.696-4.088,24.934,2.15c-0.193,0.021-0.34,0.052-0.484,0.052c-1.441,0.003-2.885,0.001-4.325,0.003
			c-0.206,0-0.415-0.004-0.616,0.031c-0.441,0.085-0.765,0.465-0.777,0.914c0,0.47,0.33,0.876,0.789,0.975
			c0.119,0.023,0.246,0.026,0.368,0.026h7.972c0.103,0,0.205-0.018,0.371-0.033c0.016-0.174,0.047-0.35,0.047-0.525
			c0.002-2.595,0.002-5.19,0.002-7.786c0-0.082,0.002-0.165-0.004-0.247c-0.043-0.59-0.453-1.004-0.975-0.988
			c-0.533,0.018-0.941,0.426-0.945,1.017c-0.017,1.565-0.008,3.13-0.009,4.696v0.42c-5.19-4.679-11.167-6.824-18.067-5.884
			C12.205,1.072,6.896,4.625,3.275,10.555c-5.652,9.262-3.49,21.297,4.96,28.203c8.3,6.783,20.517,6.45,28.441-0.78
			C44.892,30.483,45.493,19.194,41.372,11.756"/>
	</g>
	<path fill="#6E3D7C" d="M13.976,6.384c-0.006-0.515-0.413-0.936-0.928-0.96c-0.553-0.014-1.01,0.398-1.03,0.929
		c-0.01,0.515,0.383,0.948,0.896,0.988C13.489,7.372,13.975,6.934,13.976,6.384 M30.052,37.658c0.004,0.507,0.434,0.945,0.934,0.955
		c0.551,0.011,1.008-0.404,1.024-0.936c0.009-0.535-0.419-0.977-0.955-0.984c-0.003,0-0.005,0-0.008,0
		C30.502,36.697,30.049,37.137,30.052,37.658 M12.016,37.667c0.011,0.534,0.454,0.958,0.988,0.946c0.005,0,0.01,0,0.015,0
		c0.519-0.021,0.945-0.44,0.955-0.941c0.004-0.535-0.426-0.975-0.962-0.979c-0.002,0-0.005,0-0.008,0
		C12.458,36.702,12.008,37.145,12.016,37.667 M7.337,12.953c-0.02-0.524-0.448-0.948-0.95-0.94
		c-0.541,0.011-0.971,0.457-0.963,0.997c0.007,0.525,0.416,0.957,0.92,0.969c0.543,0.006,0.988-0.429,0.994-0.972
		C7.338,12.988,7.338,12.97,7.337,12.953 M40.077,23.001c0.494-0.03,0.94-0.486,0.949-0.969c0.008-0.52-0.47-1.006-0.976-0.995
		c-0.519,0.01-0.99,0.493-0.979,0.999C39.083,22.557,39.575,23.029,40.077,23.001 M36.69,31.066c0.012,0.525,0.428,0.953,0.93,0.957
		c0.543,0.002,0.984-0.438,0.984-0.981c0-0.019,0-0.037-0.002-0.056c-0.025-0.521-0.462-0.941-0.962-0.928
		C37.101,30.076,36.677,30.525,36.69,31.066 M22.991,3.988c0-0.505-0.464-0.956-0.997-0.968c-0.49-0.011-0.943,0.427-0.96,0.926
		c-0.017,0.51,0.45,1.005,0.953,1.01C22.496,4.96,22.991,4.483,22.991,3.988 M22.035,41.02c0.49,0.008,0.944-0.434,0.958-0.933
		c0.015-0.513-0.452-1.002-0.958-1.005c-0.51-0.002-1.001,0.477-0.999,0.971c0.003,0.504,0.47,0.956,1,0.965"/>
</g>
</svg>
