<svg xmlns="http://www.w3.org/2000/svg" xmlns:xlink="http://www.w3.org/1999/xlink" version="1.1" id="Layer_1" x="0px" y="0px" width="14.304px" height="8.642px" viewBox="0.495 3.515 14.304 8.642" enable-background="new 0.495 3.515 14.304 8.642" xml:space="preserve">
<title>Artboard</title>
<desc>Created with Sketch.</desc>
<path fill="#9AC854" d="M14.359,3.939c-0.564-0.566-1.553-0.567-2.119,0L7.646,8.533L3.053,3.939c-0.567-0.566-1.554-0.566-2.119,0  c-0.283,0.283-0.439,0.66-0.439,1.06c0,0.4,0.156,0.776,0.439,1.06l5.545,5.545c0.032,0.039,0.066,0.077,0.103,0.113  c0.283,0.283,0.66,0.439,1.06,0.439h0.011c0.401,0,0.777-0.156,1.059-0.438c0.037-0.037,0.071-0.075,0.104-0.114l5.545-5.544  c0.283-0.284,0.439-0.66,0.439-1.061S14.643,4.222,14.359,3.939z"/>
</svg>