<?xml version="1.0" encoding="utf-8"?>
<!-- Generator: Adobe Illustrator 16.2.0, SVG Export Plug-In . SVG Version: 6.00 Build 0)  -->
<!DOCTYPE svg PUBLIC "-//W3C//DTD SVG 1.1//EN" "http://www.w3.org/Graphics/SVG/1.1/DTD/svg11.dtd">
<svg version="1.1" id="Layer_1" xmlns="http://www.w3.org/2000/svg" xmlns:xlink="http://www.w3.org/1999/xlink" x="0px" y="0px"
	 width="81px" height="19px" viewBox="0 0 81 19" enable-background="new 0 0 81 19" xml:space="preserve">
<g>
	<path fill="#494545" d="M17.774,10.277H11.33c0.273-1.311,1.502-2.154,3.195-2.154C16.135,8.042,17.31,8.859,17.774,10.277z
		 M21.869,13.139v-0.436c0-5.18-3.03-8.341-7.399-8.341c-1.884,0-3.713,0.763-5.105,2.153C8,7.86,7.233,9.697,7.235,11.613
		c0,1.935,0.71,3.707,2.02,5.123c1.42,1.5,3.113,2.209,5.242,2.209c3.113,0,5.379-1.473,6.69-4.334h-4.45
		c-0.601,0.518-1.284,0.763-2.13,0.763c-1.802,0-2.84-0.763-3.195-2.208H21.87L21.869,13.139L21.869,13.139z M33.145,10.277h-6.443
		c0.273-1.311,1.501-2.154,3.194-2.154C31.506,8.042,32.681,8.859,33.145,10.277z M37.267,13.139v-0.436
		c0-5.18-3.03-8.341-7.398-8.341c-1.884,0-3.714,0.763-5.106,2.153c-1.365,1.345-2.132,3.182-2.13,5.098
		c0,1.935,0.71,3.707,2.02,5.123c1.42,1.5,3.113,2.209,5.243,2.209c3.058,0,5.378-1.473,6.689-4.334h-4.478
		c-0.6,0.518-1.283,0.763-2.13,0.763c-1.801,0-2.839-0.763-3.194-2.208H37.24v-0.027H37.267z M1.502,7.905v10.74h4.013V7.906h1.61
		V4.852h-1.61V4.471c0-1.282,0.273-1.636,1.502-1.636h0.082v-2.78C6.853,0.055,6.662,0,6.443,0C3.058,0,1.474,1.308,1.474,4.28
		c0,0.136,0.055,0.327,0.055,0.518H0V7.85h1.502V7.905L1.502,7.905z M38.824,7.905v10.74h4.013V7.906h1.61V4.852h-1.61V4.471
		c0-1.282,0.272-1.636,1.502-1.636h0.082v-2.78C44.175,0.055,43.984,0,43.766,0c-3.386,0-4.997,1.308-4.997,4.28
		c0,0.136,0.055,0.327,0.055,0.518h-1.502V7.85h1.502V7.905L38.824,7.905z M54.986,11.723c0,1.879-1.475,3.379-3.25,3.379
		c-1.773,0-3.248-1.5-3.248-3.379c0-1.882,1.475-3.436,3.25-3.436C53.484,8.287,54.986,9.787,54.986,11.723z M59,11.641
		c0-1.882-0.792-3.763-2.266-5.181c-1.365-1.308-3.113-2.017-5.133-2.017c-1.886,0-3.713,0.764-5.105,2.154
		c-1.364,1.345-2.133,3.181-2.13,5.096c0,1.937,0.71,3.709,2.021,5.099C47.807,18.292,49.5,19,51.628,19
		c2.075,0,3.823-0.764,5.242-2.154C58.29,15.402,59,13.712,59,11.641z"/>
	<path fill="#FFDD00" d="M64.548,8.86c-2.005-0.13-3.569-1.606-3.653-3.445h8.57V5.337C69.464,2.15,67.294,0,64.3,0
		C61.115,0,59,2.202,59,5c0,2.694,2.225,5,5.273,5c2.17,0,3.928-1.166,4.89-3.264h-0.853c-0.604,1.243-2.004,2.098-3.517,2.098
		C64.686,8.86,64.575,8.86,64.548,8.86 M75.452,8.86c2.005-0.13,3.569-1.606,3.653-3.445h-8.57V5.337C70.536,2.15,72.706,0,75.7,0
		C78.885,0,81,2.202,81,5c0,2.694-2.225,5-5.273,5c-2.17,0-3.928-1.166-4.89-3.264h0.853c0.604,1.243,2.004,2.098,3.517,2.098
		C75.314,8.86,75.342,8.86,75.452,8.86"/>
</g>
</svg>
