<?xml version="1.0" encoding="utf-8"?>
<!-- Generator: Adobe Illustrator 16.0.0, SVG Export Plug-In . SVG Version: 6.00 Build 0)  -->
<!DOCTYPE svg PUBLIC "-//W3C//DTD SVG 1.1//EN" "http://www.w3.org/Graphics/SVG/1.1/DTD/svg11.dtd">
<svg version="1.1" id="Layer_1" xmlns="http://www.w3.org/2000/svg" xmlns:xlink="http://www.w3.org/1999/xlink" x="0px" y="0px"
	 width="130px" height="40px" viewBox="0 0 130 40" enable-background="new 0 0 130 40" xml:space="preserve">
<g>
	<g>
		<path id="path-5" fill="#FFFFFF" d="M9.717,32.959c0.323,0.106,0.727,0.06,1.167-0.187l15.158-8.356l-3.902-3.913L9.717,32.959"/>
	</g>
	<g>
		<path id="path-3" fill="#FFFFFF" d="M9.737,8.066c-0.461,0.146-0.76,0.61-0.76,1.318l0.004,22.258c0,0.7,0.288,1.16,0.735,1.314
			l12.423-12.456L9.737,8.066"/>
	</g>
	<g>
		<path id="path-1" fill="#FFFFFF" d="M26.024,16.604L10.883,8.256c-0.43-0.234-0.826-0.29-1.146-0.189l12.402,12.437L26.024,16.604
			"/>
	</g>
	<g id="Page-1_4_">
		<g id="_x31_440_x5F_Homepage_x5F_without_x5F_guides" transform="translate(-635.000000, -3427.000000)">
			<g id="Group-7-Copy" transform="translate(0.000000, 2068.000000)">
				<g id="IMG_PlayStore" transform="translate(635.000000, 1359.000000)">
					<g id="Group-14">
						<path id="background" fill="#050708" d="M4,0h122c2.209,0,4,1.791,4,4v32c0,2.209-1.791,4-4,4H4c-2.209,0-4-1.791-4-4V4
							C0,1.791,1.791,0,4,0z"/>
						<g id="icon" transform="translate(8.000000, 8.000000)">
							<g id="Fill-1_17_">
								<path id="path-1_3_" fill="#00F076" d="M18.024,8.604L2.883,0.256c-0.43-0.234-0.826-0.29-1.146-0.189l12.402,12.437
									L18.024,8.604"/>
							</g>
							<path id="Fill-2_7_" fill="#FFCB00" d="M18.044,16.416l5.17-2.853c1.047-0.58,1.047-1.521,0-2.102l-5.188-2.859l-3.886,3.896
								L18.044,16.416"/>
							<g id="Fill-3_3_">
								<path id="path-3_3_" fill="#01CAFF" d="M1.737,0.066c-0.461,0.146-0.76,0.61-0.76,1.318l0.004,22.258
									c0,0.7,0.288,1.16,0.735,1.314l12.423-12.456L1.737,0.066"/>
							</g>
							<g id="Fill-4_5_">
								<path id="path-5_3_" fill="#F93647" d="M1.717,24.959c0.323,0.106,0.727,0.06,1.167-0.187l15.158-8.356l-3.902-3.913
									L1.717,24.959"/>
							</g>
						</g>
						<g id="get-it-on-google-play" transform="translate(39.000000, 7.000000)">
							<path id="Fill-28" fill="#FFFFFF" d="M65.894,24.953h1.865V12.452h-1.865V24.953z M82.701,16.955l-2.14,5.42h-0.063
								l-2.222-5.42h-2.008l3.328,7.575l-1.897,4.214h1.944l5.131-11.789H82.701z M72.118,23.533c-0.609,0-1.465-0.31-1.465-1.063
								c0-0.966,1.063-1.336,1.979-1.336c0.818,0,1.205,0.176,1.703,0.418C74.192,22.713,73.194,23.533,72.118,23.533L72.118,23.533
								z M72.345,16.683c-1.352,0-2.75,0.594-3.328,1.914l1.654,0.69c0.354-0.69,1.016-0.917,1.705-0.917
								c0.965,0,1.945,0.578,1.962,1.605v0.129c-0.338-0.19-1.063-0.479-1.944-0.479c-1.787,0-3.604,0.979-3.604,2.813
								c0,1.672,1.464,2.75,3.104,2.75c1.252,0,1.945-0.563,2.379-1.222h0.064v0.964h1.803v-4.79
								C76.142,17.92,74.481,16.683,72.345,16.683L72.345,16.683z M60.812,18.478h-2.646v-4.285h2.646
								c1.396,0,2.188,1.156,2.188,2.145C62.999,17.306,62.207,18.478,60.812,18.478L60.812,18.478z M60.765,12.452h-4.472v12.501
								h1.865v-4.736h2.604c2.063,0,4.103-1.497,4.103-3.883C64.864,13.948,62.832,12.452,60.765,12.452L60.765,12.452z
								 M36.383,23.535c-1.289,0-2.367-1.079-2.367-2.563c0-1.5,1.078-2.595,2.367-2.595c1.271,0,2.271,1.095,2.271,2.595
								C38.654,22.456,37.654,23.535,36.383,23.535L36.383,23.535z M38.525,17.656h-0.064c-0.419-0.5-1.225-0.95-2.238-0.95
								c-2.127,0-4.076,1.868-4.076,4.271c0,2.383,1.949,4.235,4.076,4.235c1.014,0,1.819-0.451,2.238-0.967h0.064v0.608
								c0,1.627-0.871,2.498-2.271,2.498c-1.145,0-1.854-0.818-2.143-1.515l-1.627,0.677c0.467,1.127,1.707,2.514,3.77,2.514
								c2.191,0,4.044-1.287,4.044-4.43v-7.637h-1.772V17.656L38.525,17.656z M41.587,24.953h1.868V12.451h-1.868V24.953z
								 M46.21,20.829c-0.048-1.646,1.271-2.48,2.226-2.48c0.739,0,1.369,0.37,1.58,0.901L46.21,20.829z M52.011,19.411
								c-0.354-0.95-1.435-2.706-3.642-2.706c-2.189,0-4.014,1.726-4.014,4.253c0,2.384,1.807,4.253,4.223,4.253
								c1.949,0,3.076-1.192,3.545-1.885l-1.45-0.97c-0.481,0.709-1.144,1.179-2.095,1.179c-0.95,0-1.627-0.438-2.063-1.288
								l5.688-2.354L52.011,19.411z M6.702,18.01v1.806h4.318c-0.129,1.017-0.469,1.758-0.984,2.271
								c-0.628,0.628-1.61,1.319-3.334,1.319c-2.658,0-4.737-2.145-4.737-4.803c0-2.656,2.079-4.801,4.737-4.801
								c1.434,0,2.48,0.564,3.254,1.289l1.273-1.273c-1.08-1.027-2.514-1.817-4.527-1.817C3.061,12.001,0,14.966,0,18.604
								c0,3.645,3.062,6.605,6.702,6.605c1.965,0,3.447-0.646,4.607-1.854c1.192-1.189,1.563-2.865,1.563-4.22
								c0-0.42-0.032-0.807-0.098-1.129H6.702V18.01L6.702,18.01z M17.78,23.535c-1.289,0-2.4-1.063-2.4-2.577
								c0-1.53,1.111-2.578,2.4-2.578c1.289,0,2.4,1.048,2.4,2.578C20.181,22.474,19.069,23.535,17.78,23.535L17.78,23.535z
								 M17.78,16.705c-2.352,0-4.27,1.788-4.27,4.253c0,2.447,1.918,4.253,4.27,4.253c2.353,0,4.27-1.806,4.27-4.253
								C22.05,18.493,20.133,16.705,17.78,16.705L17.78,16.705z M27.094,23.535c-1.289,0-2.401-1.063-2.401-2.577
								c0-1.53,1.112-2.578,2.401-2.578c1.289,0,2.4,1.048,2.4,2.578C29.494,22.474,28.383,23.535,27.094,23.535L27.094,23.535z
								 M27.094,16.705c-2.352,0-4.27,1.788-4.27,4.253c0,2.447,1.918,4.253,4.27,4.253s4.27-1.806,4.27-4.253
								C31.363,18.493,29.445,16.705,27.094,16.705L27.094,16.705z"/>
							<g enable-background="new    ">
								<path fill="#FFFFFF" d="M5.887,7.7c-0.39,0.14-1.159,0.367-2.069,0.367c-1.02,0-1.858-0.26-2.518-0.889
									C0.72,6.618,0.361,5.72,0.361,4.669C0.371,2.66,1.75,1.189,4.008,1.189c0.78,0,1.39,0.17,1.679,0.313L5.478,2.211
									c-0.36-0.159-0.811-0.289-1.49-0.289c-1.639,0-2.708,1.02-2.708,2.708c0,1.709,1.029,2.72,2.599,2.72
									c0.57,0,0.959-0.08,1.159-0.181V5.16H3.669V4.461h2.219L5.887,7.7L5.887,7.7z"/>
								<path fill="#FFFFFF" d="M7.729,5.741C7.749,6.929,8.508,7.42,9.387,7.42c0.631,0,1.01-0.108,1.34-0.249l0.15,0.629
									c-0.311,0.141-0.84,0.301-1.609,0.301c-1.489,0-2.379-0.979-2.379-2.438s0.859-2.608,2.269-2.608
									c1.579,0,1.999,1.391,1.999,2.278c0,0.181-0.02,0.317-0.029,0.41L7.729,5.741L7.729,5.741z M10.308,5.109
									c0.01-0.56-0.23-1.428-1.219-1.428c-0.891,0-1.279,0.818-1.35,1.428H10.308z"/>
								<path fill="#FFFFFF" d="M13.308,1.771v1.393h1.259v0.669h-1.259v2.606c0,0.603,0.17,0.938,0.659,0.938
									c0.23,0,0.4-0.028,0.51-0.062l0.041,0.66c-0.17,0.068-0.44,0.119-0.78,0.119c-0.409,0-0.739-0.131-0.949-0.369
									c-0.25-0.261-0.34-0.688-0.34-1.261V3.83h-0.75V3.161h0.75v-1.16L13.308,1.771z"/>
							</g>
							<g enable-background="new    ">
								<path fill="#FFFFFF" d="M18.528,1.804c0.011,0.301-0.209,0.539-0.559,0.539c-0.311,0-0.53-0.238-0.53-0.539
									c0-0.311,0.229-0.55,0.55-0.55C18.319,1.254,18.528,1.493,18.528,1.804z M17.55,8V3.163h0.879V8H17.55z"/>
								<path fill="#FFFFFF" d="M20.948,1.771v1.393h1.26v0.669h-1.26v2.606c0,0.603,0.17,0.938,0.66,0.938
									c0.23,0,0.4-0.028,0.51-0.062l0.04,0.66c-0.17,0.068-0.44,0.119-0.78,0.119c-0.409,0-0.739-0.131-0.949-0.369
									c-0.25-0.261-0.34-0.688-0.34-1.261V3.83h-0.75V3.161h0.75v-1.16L20.948,1.771z"/>
								<path fill="#FFFFFF" d="M29.695,5.541c0,1.789-1.238,2.567-2.407,2.567c-1.31,0-2.318-0.961-2.318-2.487
									c0-1.619,1.059-2.568,2.398-2.568C28.757,3.053,29.695,4.063,29.695,5.541z M25.858,5.592c0,1.06,0.609,1.858,1.469,1.858
									c0.84,0,1.47-0.789,1.47-1.881c0-0.817-0.408-1.857-1.449-1.857C26.308,3.712,25.858,4.672,25.858,5.592z"/>
								<path fill="#FFFFFF" d="M30.809,4.472c0-0.498-0.01-0.908-0.041-1.309h0.78l0.05,0.799h0.021
									c0.239-0.459,0.801-0.909,1.6-0.909c0.671,0,1.709,0.399,1.709,2.06v2.891h-0.879v-2.79c0-0.78-0.291-1.43-1.118-1.43
									c-0.58,0-1.031,0.407-1.181,0.897c-0.041,0.109-0.062,0.26-0.062,0.409V8h-0.879V4.472L30.809,4.472z"/>
							</g>
						</g>
					</g>
				</g>
			</g>
		</g>
	</g>
</g>
</svg>
