<?xml version="1.0" encoding="utf-8"?>
<!-- Generator: Adobe Illustrator 16.2.0, SVG Export Plug-In . SVG Version: 6.00 Build 0)  -->
<!DOCTYPE svg PUBLIC "-//W3C//DTD SVG 1.1//EN" "http://www.w3.org/Graphics/SVG/1.1/DTD/svg11.dtd">
<svg version="1.1" id="Layer_1" xmlns="http://www.w3.org/2000/svg" xmlns:xlink="http://www.w3.org/1999/xlink" x="0px" y="0px"
	 width="50px" height="43px" viewBox="0 0 50 43" enable-background="new 0 0 50 43" xml:space="preserve">
<g>
	<g transform="translate(0 5.077)">
		<defs>
			<filter id="Adobe_OpacityMaskFilter" filterUnits="userSpaceOnUse" x="0.393" y="0.279" width="35.723" height="30.397">
				<feColorMatrix  type="matrix" values="1 0 0 0 0  0 1 0 0 0  0 0 1 0 0  0 0 0 1 0"/>
			</filter>
		</defs>
		<mask maskUnits="userSpaceOnUse" x="0.393" y="0.279" width="35.723" height="30.397" id="b">
			<g filter="url(#Adobe_OpacityMaskFilter)">
				<path id="a" fill="#FFFFFF" d="M0.393,0.279H36.12v30.399H0.393V0.279z"/>
			</g>
		</mask>
		<path mask="url(#b)" fill="#6E3D7C" d="M26.469,2.512c-0.212,0.097-0.353,0.157-0.49,0.225c-1.268,0.612-2.282,1.646-2.873,2.923
			c-0.27,0.568-0.565,0.714-1.16,0.573c-2.058-0.481-4.183-0.611-6.284-0.384c-2.156,0.223-4.173,0.86-6.035,1.971
			c-1.546,0.923-2.88,2.056-3.713,3.698c-0.708,1.397-1.02,2.887-1.093,4.438c-0.06,1.291,0.07,2.546,0.635,3.734
			c0.713,1.502,1.782,2.711,3.066,3.746c0.767,0.617,0.964,1.289,0.644,2.219c-0.181,0.531-0.387,1.051-0.585,1.574
			c-0.204,0.537-0.11,0.766,0.417,0.969c0.705,0.27,1.41,0.535,2.118,0.799c0.533,0.199,0.756,0.096,0.964-0.436
			c0.218-0.559,0.421-1.119,0.654-1.67c0.302-0.723,0.862-1.02,1.627-0.896c0.14,0.021,0.283,0.045,0.422,0.074
			c1.422,0.318,2.858,0.414,4.309,0.277c0.66-0.061,1.322-0.131,1.984-0.166c0.934-0.053,1.365,0.242,1.695,1.113
			c0.17,0.449,0.337,0.9,0.516,1.348c0.17,0.424,0.411,0.543,0.831,0.393c0.782-0.287,1.561-0.584,2.334-0.893
			c0.383-0.148,0.479-0.383,0.35-0.779c-0.131-0.395-0.275-0.783-0.417-1.176c-0.148-0.402-0.108-0.793,0.086-1.17
			c0.19-0.371,0.491-0.627,0.84-0.85c0.472-0.301,0.946-0.604,1.376-0.957c0.951-0.781,1.65-1.768,2.169-2.879
			c0.408-0.877,1.099-1.285,2.052-1.275c0.327,0.002,0.652,0.002,0.979,0c0.51-0.006,0.638-0.135,0.64-0.656v-3.398
			c-0.002-0.543-0.115-0.65-0.676-0.66c-0.457-0.007-0.915,0.009-1.367-0.034c-0.84-0.08-1.35-0.556-1.515-1.38
			c-0.222-1.115-0.64-2.141-1.335-3.047c-0.842-1.095-1.938-1.837-3.223-2.317c-0.563-0.209-0.709-0.426-0.708-1.024
			c0-0.144,0.014-0.287,0.021-0.43C25.775,4.902,26.083,3.747,26.469,2.512 M3.536,13.515c-0.428-0.228-0.858-0.419-1.247-0.672
			C0.57,11.726-0.066,9.677,0.737,7.891c0.339-0.753,0.87-1.326,1.634-1.66c0.44-0.193,0.876-0.049,1.075,0.338
			c0.209,0.406,0.076,0.886-0.387,1.077c-1.212,0.5-1.39,2.398-0.543,3.327c0.403,0.443,0.893,0.75,1.471,0.963
			c0.04-0.066,0.089-0.126,0.115-0.195c0.804-2.029,2.154-3.598,3.969-4.796c2.272-1.5,4.754-2.38,7.456-2.677
			c1.997-0.222,4.017-0.116,5.979,0.313c0.125,0.027,0.254,0.038,0.353,0.052c0.397-0.542,0.751-1.09,1.168-1.584
			c1.211-1.434,2.787-2.284,4.582-2.743c0.61-0.155,1.098,0.402,0.903,1.025c-0.205,0.658-0.45,1.303-0.658,1.96
			c-0.308,0.971-0.479,1.968-0.506,2.878c0.819,0.55,1.618,1.002,2.317,1.573c1.479,1.21,2.395,2.798,2.814,4.658
			c0.063,0.285,0.18,0.352,0.438,0.35c0.48-0.004,0.97-0.017,1.443,0.045c1,0.13,1.729,0.948,1.74,1.948
			c0.02,1.302,0.02,2.606,0,3.909c-0.016,1.1-0.904,1.965-2.004,1.99c-0.378,0.01-0.758,0.023-1.135-0.006
			c-0.356-0.025-0.53,0.143-0.699,0.434c-0.396,0.686-0.79,1.379-1.26,2.014c-0.748,1.004-1.703,1.789-2.789,2.414
			c-0.103,0.057-0.199,0.119-0.329,0.199l0.36,0.977c0.491,1.342,0.022,2.447-1.297,2.984c-0.797,0.324-1.605,0.617-2.418,0.893
			c-1.027,0.352-2.099-0.084-2.577-1.057c-0.269-0.545-0.473-1.123-0.722-1.723c-0.3,0.023-0.621,0.045-0.941,0.08
			c-1.35,0.141-2.702,0.217-4.055,0.061c-0.555-0.061-1.106-0.162-1.655-0.262c-0.449-0.082-0.448-0.098-0.608,0.344
			s-0.309,0.885-0.482,1.32c-0.41,1.023-1.511,1.602-2.546,1.27c-0.952-0.305-1.9-0.643-2.81-1.055c-1.104-0.5-1.507-1.6-1.096-2.75
			c0.183-0.514,0.372-1.027,0.582-1.529c0.119-0.287,0.066-0.461-0.186-0.66c-1.464-1.17-2.669-2.555-3.453-4.273
			c-0.48-1.045-0.737-2.176-0.757-3.324C3.21,15.816,3.282,14.651,3.536,13.515"/>
	</g>
	<path fill="#6E3D7C" d="M9.353,9.656l-1.347,0.662C7.013,8.533,7.168,5.88,8.778,4.013c1.706-1.979,4.414-2.603,6.78-1.565
		c2.484,1.09,3.576,3.592,3.46,5.332h-1.531c-0.094-1.57-0.742-2.829-2.116-3.649c-1.024-0.612-2.131-0.732-3.278-0.44
		C9.978,4.232,8.16,6.686,9.353,9.656"/>
	<path opacity="0.2" fill="#9E64B2" enable-background="new    " d="M27.14,20.888c0.834,0.002,1.514-0.67,1.52-1.505
		c0.002-0.81-0.67-1.49-1.481-1.5c-0.817-0.014-1.491,0.637-1.506,1.455c0,0.004,0,0.007,0,0.011
		C25.66,20.206,26.305,20.88,27.14,20.888 M26.469,7.591c-0.388,1.233-0.694,2.389-0.745,3.597c-0.005,0.143-0.021,0.285-0.021,0.43
		c0,0.597,0.146,0.815,0.706,1.024c1.284,0.48,2.381,1.221,3.226,2.317c0.694,0.905,1.112,1.932,1.336,3.046
		c0.164,0.825,0.675,1.3,1.513,1.38c0.453,0.044,0.911,0.028,1.367,0.037c0.563,0.01,0.674,0.117,0.676,0.66
		c0.002,1.133,0.002,2.266,0,3.401c-0.002,0.52-0.131,0.646-0.64,0.654c-0.326,0.002-0.651,0.002-0.979,0
		c-0.955-0.012-1.645,0.396-2.053,1.273c-0.52,1.109-1.217,2.1-2.168,2.879c-0.432,0.355-0.906,0.656-1.377,0.957
		c-0.348,0.227-0.648,0.48-0.84,0.852c-0.198,0.355-0.23,0.783-0.088,1.17c0.144,0.393,0.287,0.783,0.418,1.176
		c0.132,0.398,0.033,0.631-0.348,0.781c-0.773,0.305-1.555,0.602-2.334,0.889c-0.42,0.152-0.661,0.033-0.831-0.391
		c-0.18-0.447-0.347-0.898-0.517-1.35c-0.33-0.871-0.76-1.166-1.694-1.111c-0.663,0.033-1.324,0.104-1.985,0.168
		c-1.452,0.135-2.887,0.039-4.309-0.277c-0.14-0.031-0.281-0.057-0.422-0.078c-0.764-0.123-1.325,0.176-1.628,0.895
		c-0.232,0.549-0.434,1.113-0.653,1.672c-0.208,0.531-0.431,0.633-0.964,0.436c-0.708-0.264-1.414-0.529-2.118-0.801
		c-0.528-0.201-0.62-0.43-0.417-0.969c0.198-0.521,0.403-1.043,0.585-1.574c0.32-0.93,0.123-1.6-0.644-2.219
		c-1.283-1.035-2.353-2.244-3.067-3.746c-0.564-1.186-0.696-2.441-0.634-3.732c0.073-1.55,0.385-3.04,1.093-4.438
		c0.833-1.642,2.167-2.774,3.713-3.697c1.862-1.112,3.879-1.748,6.035-1.972c2.117-0.219,4.21-0.105,6.284,0.385
		c0.595,0.14,0.89-0.006,1.16-0.574c0.59-1.278,1.605-2.312,2.874-2.923C26.116,7.747,26.257,7.687,26.469,7.591"/>
	<path fill="#6E3D7C" d="M27.14,20.888c-0.835-0.007-1.48-0.682-1.47-1.54c0.009-0.817,0.679-1.473,1.495-1.465
		c0.004,0,0.008,0,0.013,0c0.813,0.01,1.483,0.69,1.481,1.5C28.653,20.218,27.974,20.891,27.14,20.888"/>
	<g transform="translate(23.636 .532)">
		<defs>
			<filter id="Adobe_OpacityMaskFilter_1_" filterUnits="userSpaceOnUse" x="0.817" y="0.248" width="25.154" height="41.441">
				<feColorMatrix  type="matrix" values="1 0 0 0 0  0 1 0 0 0  0 0 1 0 0  0 0 0 1 0"/>
			</filter>
		</defs>
		<mask maskUnits="userSpaceOnUse" x="0.817" y="0.248" width="25.154" height="41.441" id="d">
			<g filter="url(#Adobe_OpacityMaskFilter_1_)">
				<path id="c" fill="#FFFFFF" d="M0.792,0.248h25.18v41.441H0.792V0.248z"/>
			</g>
		</mask>
		<path mask="url(#d)" fill="#6E3D7C" d="M5.456,41.689c-0.2,0-0.4-0.072-0.56-0.221l-3.842-3.549
			c-0.319-0.324-0.316-0.848,0.009-1.168c0.304-0.301,0.786-0.318,1.112-0.045l3.241,2.998L23.23,20.901h-5.627
			c-0.453,0-0.822-0.366-0.826-0.82L16.671,1.898H2.9c-0.455,0-0.825-0.37-0.825-0.825S2.445,0.248,2.9,0.248h14.59
			c0.455,0,0.824,0.366,0.826,0.82l0.107,18.183h6.725c0.455,0,0.824,0.371,0.823,0.826c-0.001,0.21-0.081,0.413-0.226,0.566
			L6.055,41.431C5.9,41.595,5.682,41.689,5.456,41.689"/>
	</g>
</g>
</svg>
