<?xml version="1.0" encoding="utf-8"?>
<!-- Generator: Adobe Illustrator 16.2.0, SVG Export Plug-In . SVG Version: 6.00 Build 0)  -->
<!DOCTYPE svg PUBLIC "-//W3C//DTD SVG 1.1//EN" "http://www.w3.org/Graphics/SVG/1.1/DTD/svg11.dtd">
<svg version="1.1" id="Layer_1" xmlns="http://www.w3.org/2000/svg" xmlns:xlink="http://www.w3.org/1999/xlink" x="0px" y="0px"
	 width="131px" height="32px" viewBox="0 0 131 32" enable-background="new 0 0 131 32" xml:space="preserve">
<g id="Type">
	<g>
		<path fill="#191919" d="M34.593,11.341h13.193v2.462h-5.188v13.837h-2.853V13.803H34.58v-2.462H34.593z M47.223,15.839h2.438
			v2.277h0.046c0.081-0.321,0.23-0.632,0.449-0.933c0.218-0.299,0.483-0.586,0.793-0.828c0.311-0.253,0.656-0.448,1.035-0.609
			c0.38-0.149,0.771-0.23,1.162-0.23c0.299,0,0.518,0.011,0.632,0.023c0.115,0.011,0.23,0.034,0.357,0.046v2.508
			c-0.184-0.035-0.368-0.058-0.564-0.08c-0.195-0.022-0.379-0.035-0.563-0.035c-0.437,0-0.851,0.092-1.242,0.266
			c-0.391,0.173-0.725,0.438-1.012,0.771c-0.288,0.346-0.518,0.76-0.69,1.266s-0.253,1.08-0.253,1.736v5.612h-2.6V15.84
			L47.223,15.839L47.223,15.839z M66.086,27.641h-2.553v-1.645h-0.046c-0.322,0.598-0.793,1.068-1.426,1.426
			c-0.632,0.355-1.276,0.541-1.932,0.541c-1.553,0-2.68-0.38-3.371-1.15c-0.69-0.771-1.035-1.933-1.035-3.484V15.84h2.6v7.235
			c0,1.034,0.196,1.771,0.598,2.196c0.391,0.427,0.955,0.645,1.668,0.645c0.552,0,1-0.081,1.369-0.253s0.667-0.392,0.886-0.679
			c0.23-0.276,0.391-0.621,0.495-1.014c0.104-0.391,0.149-0.816,0.149-1.275v-6.844h2.599L66.086,27.641L66.086,27.641z
			 M70.516,23.855c0.08,0.76,0.367,1.289,0.862,1.6c0.506,0.299,1.104,0.46,1.806,0.46c0.242,0,0.519-0.022,0.828-0.058
			c0.312-0.034,0.609-0.115,0.875-0.219c0.275-0.104,0.494-0.265,0.678-0.472c0.174-0.207,0.254-0.474,0.242-0.806
			c-0.012-0.334-0.139-0.609-0.369-0.816c-0.229-0.219-0.518-0.38-0.873-0.52c-0.356-0.125-0.76-0.239-1.219-0.332
			c-0.461-0.092-0.922-0.195-1.393-0.299c-0.482-0.104-0.955-0.242-1.403-0.393c-0.448-0.148-0.852-0.355-1.208-0.621
			c-0.355-0.253-0.645-0.586-0.852-0.988c-0.219-0.402-0.322-0.897-0.322-1.496c0-0.645,0.162-1.172,0.473-1.609
			c0.312-0.438,0.713-0.782,1.185-1.046c0.483-0.265,1.013-0.449,1.6-0.564c0.586-0.104,1.15-0.161,1.681-0.161
			c0.608,0,1.194,0.069,1.748,0.195c0.553,0.126,1.059,0.333,1.506,0.633c0.449,0.288,0.816,0.667,1.117,1.127
			c0.299,0.461,0.481,1.023,0.563,1.68h-2.714c-0.126-0.621-0.403-1.047-0.851-1.254c-0.449-0.219-0.968-0.321-1.543-0.321
			c-0.185,0-0.402,0.012-0.654,0.046c-0.254,0.033-0.483,0.092-0.713,0.173c-0.219,0.08-0.403,0.207-0.564,0.367
			c-0.148,0.162-0.23,0.368-0.23,0.633c0,0.322,0.115,0.575,0.334,0.771c0.22,0.195,0.506,0.355,0.863,0.494
			c0.355,0.127,0.76,0.241,1.219,0.334c0.461,0.092,0.933,0.195,1.416,0.299c0.472,0.104,0.932,0.242,1.392,0.392
			s0.862,0.356,1.219,0.621s0.646,0.587,0.863,0.979c0.219,0.391,0.334,0.885,0.334,1.459c0,0.703-0.162,1.289-0.483,1.783
			c-0.322,0.483-0.736,0.887-1.242,1.186c-0.507,0.299-1.08,0.529-1.701,0.666c-0.621,0.139-1.242,0.209-1.854,0.209
			c-0.747,0-1.438-0.082-2.07-0.254s-1.185-0.426-1.646-0.76c-0.459-0.345-0.828-0.771-1.093-1.275
			c-0.264-0.508-0.401-1.116-0.426-1.818h2.623v-0.023H70.516z M79.096,15.839h1.967v-3.542h2.601v3.542h2.347v1.944h-2.347v6.303
			c0,0.275,0.012,0.506,0.035,0.713c0.022,0.196,0.079,0.369,0.159,0.508c0.082,0.137,0.207,0.24,0.382,0.311
			c0.172,0.068,0.391,0.104,0.688,0.104c0.184,0,0.368,0,0.553-0.012c0.185-0.011,0.367-0.034,0.552-0.081v2.015
			c-0.287,0.033-0.574,0.058-0.839,0.092c-0.276,0.035-0.553,0.045-0.84,0.045c-0.69,0-1.242-0.068-1.656-0.194
			s-0.747-0.321-0.979-0.575c-0.242-0.253-0.391-0.563-0.482-0.943c-0.081-0.379-0.139-0.815-0.149-1.299v-6.959H79.12v-1.968
			h-0.024V15.839z M87.85,15.839h2.461v1.599h0.047c0.367-0.688,0.873-1.172,1.529-1.472c0.656-0.299,1.357-0.448,2.129-0.448
			c0.932,0,1.736,0.161,2.426,0.495c0.69,0.322,1.267,0.771,1.727,1.346c0.46,0.574,0.794,1.242,1.023,2.002
			c0.229,0.758,0.346,1.574,0.346,2.438c0,0.794-0.104,1.564-0.311,2.301c-0.207,0.748-0.52,1.403-0.934,1.979
			c-0.414,0.575-0.941,1.022-1.586,1.369c-0.645,0.345-1.393,0.518-2.268,0.518c-0.379,0-0.758-0.034-1.139-0.104
			c-0.38-0.068-0.748-0.185-1.093-0.334c-0.347-0.148-0.679-0.344-0.967-0.586c-0.3-0.241-0.54-0.518-0.747-0.827h-0.046V32h-2.601
			V15.839H87.85z M96.938,21.752c0-0.529-0.069-1.047-0.207-1.554c-0.139-0.507-0.346-0.942-0.621-1.334
			c-0.276-0.392-0.623-0.702-1.024-0.933c-0.414-0.229-0.885-0.355-1.414-0.355c-1.093,0-1.922,0.379-2.473,1.139
			c-0.554,0.76-0.829,1.771-0.829,3.037c0,0.598,0.068,1.148,0.219,1.656c0.148,0.506,0.355,0.941,0.655,1.311
			c0.288,0.368,0.633,0.656,1.034,0.863c0.404,0.219,0.875,0.322,1.404,0.322c0.598,0,1.092-0.127,1.506-0.369
			c0.414-0.241,0.748-0.563,1.014-0.943c0.265-0.391,0.46-0.828,0.574-1.322C96.879,22.775,96.938,22.27,96.938,21.752z
			 M101.525,11.341h2.6v2.462h-2.6V11.341z M101.525,15.839h2.6v11.802h-2.6V15.839z M106.449,11.341h2.6v16.3h-2.6V11.341z
			 M117.02,27.963c-0.942,0-1.783-0.161-2.52-0.472c-0.734-0.312-1.355-0.748-1.874-1.288c-0.507-0.553-0.897-1.208-1.162-1.967
			c-0.265-0.76-0.401-1.601-0.401-2.508c0-0.897,0.138-1.727,0.401-2.484c0.265-0.76,0.655-1.415,1.162-1.967
			c0.506-0.553,1.14-0.979,1.874-1.29c0.736-0.311,1.576-0.471,2.52-0.471c0.944,0,1.783,0.161,2.521,0.471
			c0.737,0.31,1.356,0.749,1.875,1.29c0.506,0.552,0.896,1.207,1.162,1.967c0.264,0.759,0.401,1.587,0.401,2.484
			c0,0.907-0.139,1.748-0.401,2.508c-0.267,0.759-0.656,1.414-1.162,1.967c-0.506,0.552-1.14,0.979-1.875,1.288
			S117.963,27.963,117.02,27.963z M117.02,25.904c0.576,0,1.082-0.127,1.508-0.369c0.426-0.241,0.771-0.563,1.047-0.954
			c0.275-0.392,0.472-0.84,0.609-1.335c0.127-0.494,0.195-1,0.195-1.518c0-0.506-0.068-1.002-0.195-1.508
			c-0.127-0.507-0.334-0.943-0.609-1.335c-0.276-0.391-0.621-0.7-1.047-0.942c-0.426-0.241-0.932-0.367-1.508-0.367
			c-0.574,0-1.08,0.126-1.506,0.367c-0.426,0.242-0.771,0.563-1.047,0.942c-0.277,0.392-0.473,0.828-0.609,1.335
			c-0.127,0.506-0.195,1.002-0.195,1.508c0,0.518,0.068,1.022,0.195,1.518c0.125,0.495,0.332,0.943,0.609,1.335
			c0.275,0.392,0.621,0.713,1.047,0.954C115.938,25.789,116.445,25.904,117.02,25.904z M123.736,15.839h1.968v-3.542h2.601v3.542
			h2.346v1.944h-2.346v6.303c0,0.275,0.012,0.506,0.033,0.713c0.023,0.196,0.081,0.369,0.161,0.508
			c0.081,0.137,0.207,0.24,0.38,0.311c0.172,0.068,0.391,0.104,0.689,0.104c0.185,0,0.369,0,0.553-0.012
			c0.184-0.011,0.367-0.034,0.553-0.081v2.015c-0.288,0.033-0.576,0.058-0.84,0.092c-0.275,0.035-0.553,0.045-0.84,0.045
			c-0.689,0-1.242-0.068-1.656-0.194s-0.748-0.321-0.979-0.575c-0.241-0.253-0.392-0.563-0.482-0.943
			c-0.08-0.379-0.139-0.815-0.15-1.299v-6.959h-1.967v-1.968h-0.023V15.839z"/>
	</g>
</g>
<g id="Star">
	<polygon fill="#00B67A" points="31.556,11.341 19.64,11.341 15.958,0 12.266,11.341 0.35,11.33 10,18.348 6.308,29.676 
		15.958,22.672 25.598,29.676 21.917,18.348 31.556,11.341 	"/>
	<polygon fill="#005128" points="22.745,20.912 21.917,18.348 15.958,22.672 	"/>
</g>
</svg>
