<?xml version="1.0" encoding="utf-8"?>
<!-- Generator: Adobe Illustrator 16.0.0, SVG Export Plug-In . SVG Version: 6.00 Build 0)  -->
<!DOCTYPE svg PUBLIC "-//W3C//DTD SVG 1.1//EN" "http://www.w3.org/Graphics/SVG/1.1/DTD/svg11.dtd">
<svg version="1.1" id="Layer_1" xmlns="http://www.w3.org/2000/svg" xmlns:xlink="http://www.w3.org/1999/xlink" x="0px" y="0px"
	 width="13px" height="14.135px" viewBox="0 0 13 14.135" enable-background="new 0 0 13 14.135" xml:space="preserve">
<g>
	<path fill="#F0EDF6" d="M6.488,7.635c1.83,0,3.313-1.488,3.313-3.318C9.801,2.49,8.319,1,6.488,1S3.17,2.487,3.17,4.316
		C3.17,6.145,4.658,7.635,6.488,7.635z"/>
	<path fill="#F0EDF6" d="M6.488,8.635c-3.032,0-5.5,2.469-5.5,5.5h11C11.988,11.102,9.521,8.635,6.488,8.635z"/>
	<path fill="#6E3D7C" d="M8.674,8.02c1.271-0.752,2.133-2.123,2.133-3.703C10.807,1.934,8.869,0,6.494,0S2.177,1.938,2.177,4.316
		c0,1.58,0.862,2.951,2.137,3.703C1.8,8.92,0,11.316,0,14.135h0.5H1c0-3.033,2.469-5.501,5.5-5.501c3.032,0,5.5,2.468,5.5,5.501h0.5
		H13C12.988,11.315,11.185,8.921,8.674,8.02z M6.488,0.998c1.83,0,3.313,1.487,3.313,3.316c0,1.828-1.481,3.317-3.313,3.317
		S3.17,6.143,3.17,4.314S4.658,0.998,6.488,0.998z"/>
</g>
</svg>
